<svg width="18" height="18" viewBox="0 0 18 18" fill="none" xmlns="http://www.w3.org/2000/svg">
<path fill-rule="evenodd" clip-rule="evenodd" d="M9.00001 3.375C7.78429 3.37547 6.60143 3.7698 5.62862 4.49892C4.65581 5.22804 3.9454 6.25272 3.6038 7.41946C3.2622 8.58621 3.3078 9.83223 3.73376 10.9709C4.15973 12.1095 4.94313 13.0795 5.96663 13.7356C6.99014 14.3917 8.19865 14.6985 9.41116 14.6101C10.6237 14.5217 11.7749 14.0429 12.6924 13.2453C13.61 12.4477 14.2444 11.3744 14.5007 10.186C14.7571 8.99758 14.6215 7.75812 14.1143 6.65325C14.0591 6.51892 14.0579 6.36844 14.1112 6.23331C14.1644 6.09818 14.2678 5.98887 14.3998 5.92826C14.5318 5.86765 14.6821 5.86043 14.8193 5.90812C14.9564 5.95582 15.0698 6.05471 15.1358 6.18413C15.7444 7.51004 15.907 8.99745 15.5993 10.4236C15.2917 11.8497 14.5302 13.1377 13.4291 14.0947C12.3279 15.0518 10.9463 15.6263 9.49124 15.7322C8.03616 15.8381 6.58594 15.4698 5.35779 14.6823C4.12964 13.8948 3.18968 12.7306 2.67871 11.3641C2.16773 9.99761 2.11325 8.50233 2.52343 7.10225C2.9336 5.70218 3.78635 4.47268 4.95393 3.59792C6.12152 2.72317 7.54109 2.25025 9.00001 2.25V3.375Z" fill="#FBFBFB"/>
<path d="M9 5.02426V0.600755C9.00002 0.547314 9.01527 0.494984 9.04395 0.449894C9.07264 0.404804 9.11358 0.36882 9.16197 0.346156C9.21037 0.323491 9.26422 0.315085 9.31723 0.321921C9.37023 0.328757 9.42019 0.350553 9.46125 0.384755L12.1163 2.59651C12.2513 2.70901 12.2513 2.91601 12.1163 3.02851L9.46125 5.24026C9.42019 5.27446 9.37023 5.29625 9.31723 5.30309C9.26422 5.30993 9.21037 5.30152 9.16197 5.27886C9.11358 5.25619 9.07264 5.22021 9.04395 5.17512C9.01527 5.13003 9.00002 5.0777 9 5.02426Z" fill="#FBFBFB"/>
</svg>
