<svg width="16" height="16" viewBox="0 0 16 16" fill="none" xmlns="http://www.w3.org/2000/svg">
<g clip-path="url(#clip0_4_96)">
<path fill-rule="evenodd" clip-rule="evenodd" d="M4.25 2.375C4.25 1.87772 4.44754 1.40081 4.79917 1.04917C5.15081 0.697544 5.62772 0.5 6.125 0.5L13.625 0.5C14.1223 0.5 14.5992 0.697544 14.9508 1.04917C15.3025 1.40081 15.5 1.87772 15.5 2.375V9.875C15.5 10.3723 15.3025 10.8492 14.9508 11.2008C14.5992 11.5525 14.1223 11.75 13.625 11.75H6.125C5.62772 11.75 5.15081 11.5525 4.79917 11.2008C4.44754 10.8492 4.25 10.3723 4.25 9.875V2.375ZM6.125 1.4375C5.87636 1.4375 5.6379 1.53627 5.46209 1.71209C5.28627 1.8879 5.1875 2.12636 5.1875 2.375V9.875C5.1875 10.1236 5.28627 10.3621 5.46209 10.5379C5.6379 10.7137 5.87636 10.8125 6.125 10.8125H13.625C13.8736 10.8125 14.1121 10.7137 14.2879 10.5379C14.4637 10.3621 14.5625 10.1236 14.5625 9.875V2.375C14.5625 2.12636 14.4637 1.8879 14.2879 1.71209C14.1121 1.53627 13.8736 1.4375 13.625 1.4375H6.125ZM2.375 5.1875C2.12636 5.1875 1.8879 5.28627 1.71209 5.46209C1.53627 5.6379 1.4375 5.87636 1.4375 6.125V13.625C1.4375 13.8736 1.53627 14.1121 1.71209 14.2879C1.8879 14.4637 2.12636 14.5625 2.375 14.5625H9.875C10.1236 14.5625 10.3621 14.4637 10.5379 14.2879C10.7137 14.1121 10.8125 13.8736 10.8125 13.625V12.6875H11.75V13.625C11.75 14.1223 11.5525 14.5992 11.2008 14.9508C10.8492 15.3025 10.3723 15.5 9.875 15.5H2.375C1.87772 15.5 1.40081 15.3025 1.04917 14.9508C0.697544 14.5992 0.5 14.1223 0.5 13.625V6.125C0.5 5.62772 0.697544 5.15081 1.04917 4.79917C1.40081 4.44754 1.87772 4.25 2.375 4.25H3.3125V5.1875H2.375Z" fill="#F5F5F5"/>
</g>
<defs>
<clipPath id="clip0_4_96">
<rect width="15" height="15" fill="white" transform="translate(0.5 0.5)"/>
</clipPath>
</defs>
</svg>
